<?xml version="1.0" standalone="no"?>
<!DOCTYPE svg PUBLIC "-//W3C//DTD SVG 20010904//EN"
 "http://www.w3.org/TR/2001/REC-SVG-20010904/DTD/svg10.dtd">
<svg version="1.0" xmlns="http://www.w3.org/2000/svg"
 width="1242.000000pt" height="1242.000000pt" viewBox="0 0 1242.000000 1242.000000"
 preserveAspectRatio="xMidYMid meet">
<metadata>
Created by potrace 1.14, written by Peter Selinger 2001-2017
</metadata>
<g transform="translate(0.000000,1242.000000) scale(0.100000,-0.100000)"
fill="#000000" stroke="none">
<path d="M5348 12277 c-46 -37 -71 -109 -72 -204 0 -77 2 -87 42 -165 23 -46
42 -94 42 -108 0 -25 -1 -25 -83 -25 -120 -1 -224 -46 -352 -155 -54 -45 -105
-65 -105 -41 0 5 9 49 21 97 18 78 19 95 9 153 -26 143 -63 181 -177 181 -101
0 -173 -64 -227 -200 -23 -60 -31 -177 -14 -209 28 -51 81 -82 154 -89 l69 -7
-27 -19 c-28 -18 -115 -123 -137 -163 -6 -12 -11 -61 -11 -110 0 -92 -18 -214
-46 -311 -23 -80 -75 -143 -234 -284 -129 -113 -140 -126 -161 -183 -14 -37
-24 -92 -27 -144 l-5 -83 -36 7 c-20 4 -74 10 -121 13 -56 5 -93 13 -110 25
-13 9 -32 17 -40 17 -24 0 -66 49 -80 93 -7 23 -21 43 -36 49 -29 14 -30 20
-3 44 36 33 99 167 99 211 0 34 -69 77 -109 68 -36 -8 -79 -54 -110 -119 -21
-42 -59 -82 -69 -71 -2 2 3 25 12 51 47 138 -25 290 -167 355 -101 46 -263 1
-367 -101 -51 -50 -118 -156 -127 -201 -3 -16 -9 -29 -13 -29 -3 0 -24 26 -46
58 -55 81 -53 78 -123 153 -35 37 -91 85 -125 106 -59 36 -64 37 -155 38 -93
0 -93 0 -120 -32 -32 -39 -61 -118 -61 -168 0 -78 58 -223 123 -308 16 -21 27
-40 24 -43 -2 -3 -20 4 -39 16 -53 31 -148 59 -200 60 -121 0 -194 -164 -125
-283 15 -25 54 -69 87 -98 33 -29 60 -58 60 -65 0 -7 -16 -16 -35 -20 -38 -7
-75 -44 -75 -76 0 -18 14 -42 90 -152 22 -32 40 -61 40 -65 0 -9 64 -51 80
-51 26 0 119 54 123 72 8 30 43 21 76 -20 62 -80 128 -219 164 -352 46 -166
55 -277 34 -401 -9 -52 -23 -157 -32 -234 -9 -77 -20 -174 -26 -215 -30 -240
-49 -588 -39 -718 14 -161 33 -230 109 -387 120 -246 346 -476 648 -661 l92
-56 68 12 c38 6 91 18 118 27 112 34 203 66 250 88 28 12 79 35 115 51 82 37
264 145 355 212 38 28 73 48 77 44 8 -8 29 -109 35 -171 6 -49 -1 -66 -68
-166 -46 -69 -47 -71 -53 -174 -5 -66 -3 -137 5 -192 12 -80 11 -90 -4 -107
-10 -11 -17 -35 -17 -60 0 -67 61 -150 175 -240 38 -30 88 -72 110 -93 22 -21
74 -54 116 -74 42 -20 99 -56 128 -80 l51 -44 -47 -32 c-160 -109 -389 -341
-474 -479 -49 -79 -61 -190 -33 -302 15 -58 88 -227 104 -238 4 -3 19 -25 33
-50 43 -73 155 -207 268 -321 l106 -106 -31 -11 c-17 -5 -49 -13 -71 -17 -96
-15 -270 -88 -357 -150 -60 -41 -245 -225 -276 -273 -27 -43 -35 -66 -36 -107
-1 -29 -6 -59 -12 -66 -30 -39 -49 -117 -49 -199 0 -78 2 -89 30 -130 24 -35
47 -54 104 -82 60 -30 78 -44 91 -73 30 -65 87 -122 155 -156 53 -26 80 -32
152 -36 159 -9 298 25 498 123 272 134 431 245 643 449 123 118 208 218 285
337 162 248 187 505 61 632 -35 35 -90 70 -124 80 -133 39 -244 105 -275 165
-14 28 -14 29 8 24 158 -35 426 -152 567 -248 78 -53 177 -135 231 -192 43
-46 48 -55 63 -139 10 -49 23 -120 31 -159 7 -38 21 -110 30 -160 37 -201 65
-341 97 -490 36 -164 30 -552 -12 -780 -54 -296 -68 -339 -136 -406 -100 -97
-153 -196 -179 -330 -14 -74 -14 -90 1 -168 9 -53 30 -117 54 -166 34 -71 47
-87 115 -140 150 -118 219 -231 250 -410 24 -145 107 -288 197 -341 8 -5 34
-47 58 -94 73 -145 153 -233 265 -286 62 -30 79 -34 152 -34 73 0 91 4 147 31
35 17 85 53 111 79 l47 48 61 -19 c129 -39 233 -16 337 76 39 36 70 55 86 55
33 0 99 35 134 70 105 108 112 335 15 544 -100 217 -290 454 -652 811 l-153
150 14 35 c7 19 31 74 54 123 23 48 42 93 42 101 0 7 3 16 7 20 8 8 27 63 48
141 7 28 22 84 33 126 72 271 142 774 171 1229 28 430 34 658 21 807 -7 81
-14 151 -16 155 -2 3 2 26 10 50 14 45 40 157 52 221 7 44 -4 43 129 12 112
-26 323 -67 465 -90 240 -39 285 -46 445 -65 94 -11 203 -20 244 -20 89 0 376
28 411 40 14 5 43 11 65 15 44 6 210 58 265 81 156 68 275 149 395 269 139
138 221 266 286 445 27 73 32 102 36 210 5 139 -14 299 -47 375 -4 11 -18 49
-31 85 -115 330 -412 711 -870 1115 -43 38 -222 182 -269 216 -114 82 -263
159 -361 185 -58 15 -72 16 -113 4 -59 -16 -96 -59 -113 -132 -32 -133 20
-192 367 -413 140 -89 225 -148 319 -224 240 -191 481 -482 585 -706 66 -142
80 -186 96 -308 23 -174 -20 -339 -123 -470 -100 -126 -211 -203 -370 -255
-193 -64 -340 -86 -567 -86 -287 0 -499 42 -785 157 -62 25 -324 160 -350 181
l-27 22 11 165 c6 90 14 312 18 492 l6 328 31 13 c17 8 56 24 86 36 237 94
459 256 590 428 l51 67 -5 95 c-10 220 -62 424 -164 645 -50 108 -144 280
-168 306 -8 8 -14 19 -14 23 0 15 -202 277 -272 352 -41 43 -98 118 -127 166
-47 79 -89 137 -160 223 -61 72 -160 161 -316 283 -35 27 -244 147 -310 179
-55 25 -74 38 -60 41 82 14 231 75 323 132 43 26 70 35 154 54 15 3 32 15 38
26 8 15 5 24 -17 45 -27 26 -121 75 -142 75 -6 0 -19 4 -29 9 -33 19 -166 41
-278 48 -111 6 -123 9 -105 29 13 15 57 142 77 224 26 107 24 277 -3 345 -20
48 -46 76 -58 63 -4 -4 -9 -42 -12 -85 -5 -84 -20 -119 -57 -133 -24 -9 -127
-73 -283 -176 -51 -34 -93 -60 -93 -59 0 2 13 32 29 67 61 133 103 290 116
435 9 90 0 106 -106 193 -51 42 -74 67 -67 72 7 4 9 10 5 14 -3 4 -13 2 -21
-5 -11 -10 -27 -3 -82 34 -37 25 -74 45 -81 45 -7 0 -13 4 -13 8 0 11 85 72
99 72 6 0 11 4 11 10 0 13 -37 -2 -89 -35 -22 -14 -45 -25 -49 -25 -16 0 -116
57 -119 67 -2 6 15 27 38 47 56 52 43 56 -19 6 -28 -22 -53 -40 -56 -40 -21 0
-175 83 -231 125 -108 81 -465 439 -465 466 0 9 3 9 14 0 24 -20 100 6 146 50
41 40 100 144 100 177 0 73 -105 213 -241 324 -90 73 -160 88 -211 45z m182
-202 c41 -21 99 -97 115 -148 10 -35 11 -47 0 -67 -13 -24 -116 -113 -123
-106 -2 2 4 25 12 50 18 51 21 90 7 82 -4 -3 -21 -30 -36 -61 -32 -63 -46 -71
-38 -20 4 23 -2 55 -17 95 -20 54 -21 65 -10 108 10 39 40 82 57 82 2 0 17 -7
33 -15z m-820 -245 c28 -15 40 -65 40 -167 0 -100 -9 -112 -36 -47 -19 46 -37
44 -28 -3 6 -32 5 -35 -10 -30 -10 4 -33 7 -51 7 -117 0 -88 196 35 243 23 8
30 8 50 -3z m592 -195 c77 -20 147 -64 194 -122 23 -28 40 -41 42 -33 5 14 35
-47 89 -179 l34 -84 -24 -26 c-33 -36 -60 -78 -55 -90 1 -5 21 -1 43 9 56 27
60 25 72 -22 6 -24 13 -50 17 -59 5 -12 -10 -27 -66 -62 -75 -47 -168 -129
-168 -149 0 -6 9 -8 23 -4 73 21 369 33 425 18 21 -7 17 -12 -51 -80 l-74 -74
-21 34 -21 33 37 5 c29 4 38 10 40 28 5 30 -26 29 -94 -4 -61 -30 -104 -69
-104 -95 0 -41 46 -29 52 13 5 35 25 32 52 -8 25 -37 25 -37 6 -63 -11 -14
-54 -62 -95 -106 -77 -82 -92 -118 -50 -122 14 -2 37 19 80 73 70 89 110 134
117 134 3 0 9 -12 13 -27 5 -23 -4 -37 -88 -122 -126 -129 -158 -168 -151
-186 12 -30 43 -14 99 53 67 78 166 184 169 180 1 -2 8 -21 14 -43 12 -39 12
-41 -26 -75 -20 -19 -57 -51 -82 -70 -89 -70 -124 -106 -117 -123 12 -31 40
-17 132 68 51 47 96 85 99 85 13 0 4 -99 -14 -153 -31 -94 -78 -166 -159 -248
-111 -110 -158 -130 -336 -136 -142 -6 -279 13 -315 44 -15 12 -41 49 -59 82
-29 56 -51 77 -51 50 0 -33 36 -112 61 -133 16 -14 29 -29 29 -33 0 -16 -64
-70 -105 -89 -59 -28 -269 -27 -340 0 -70 28 -94 44 -126 90 -33 44 -38 72
-13 62 9 -4 23 -1 30 5 26 21 15 39 -31 51 -39 11 -64 32 -51 46 3 2 33 -1 67
-7 65 -11 89 -4 89 25 0 15 -59 34 -110 34 -38 0 -69 14 -57 26 4 4 13 2 19
-4 7 -7 25 -12 40 -12 23 0 28 4 28 23 0 18 -9 26 -37 36 -59 21 -62 26 -56
89 3 31 7 58 8 59 1 2 27 -22 59 -53 50 -49 83 -68 191 -114 36 -15 129 -39
217 -56 l87 -16 54 36 c118 78 230 253 277 432 27 103 25 128 -8 183 -41 65
-182 356 -182 373 0 8 -4 18 -9 24 -9 9 -38 106 -60 197 -14 59 -14 180 -1
229 17 59 87 123 168 153 49 18 63 18 134 0z m-528 -255 c24 -9 26 -14 26 -74
l0 -64 -50 1 c-60 1 -88 -21 -127 -100 -24 -50 -25 -61 -20 -151 4 -88 15
-130 49 -199 9 -18 4 -32 -35 -90 -25 -37 -72 -99 -104 -136 -147 -172 -161
-195 -156 -237 5 -33 2 -41 -13 -46 -76 -26 -124 -54 -124 -73 0 -29 17 -26
59 11 l36 32 3 -53 c2 -29 1 -55 -1 -58 -3 -2 -45 7 -93 20 l-89 24 -3 84 c-2
46 1 107 8 134 10 48 14 53 78 91 95 57 112 64 167 72 28 4 50 12 49 17 -1 6
-19 16 -40 24 -21 8 -40 16 -42 17 -2 1 22 38 52 82 31 44 56 85 56 90 0 17
26 21 70 11 23 -5 45 -8 47 -5 3 2 -13 24 -35 48 l-41 44 18 69 c10 39 22 106
26 150 11 128 59 216 140 258 35 19 55 20 89 7z m4 -182 c7 -7 9 -28 5 -57 -7
-57 -19 -81 -39 -81 -12 0 -14 -5 -9 -17 4 -10 10 -28 12 -40 5 -21 1 -23 -31
-23 -30 0 -37 -4 -42 -26 -4 -16 0 -39 10 -61 11 -22 13 -40 7 -50 -6 -12 -12
-5 -24 33 -24 74 -30 145 -18 205 19 92 90 156 129 117z m-2370 -285 c107 -59
178 -140 284 -324 53 -91 98 -183 98 -199 0 -4 -15 -10 -32 -13 -89 -16 -187
-36 -218 -46 -44 -14 -60 -14 -60 0 0 6 -22 41 -49 78 -26 36 -66 93 -87 126
-22 33 -47 69 -57 80 -29 31 -54 85 -71 152 -20 76 -20 106 -1 143 15 28 19
30 79 30 50 0 74 -6 114 -27z m2702 -64 c0 -3 24 -48 54 -100 30 -52 53 -95
53 -96 -1 -1 -37 4 -79 10 -65 9 -88 8 -150 -6 -85 -20 -170 -61 -246 -118
l-53 -41 -36 17 c-26 13 -50 16 -86 11 l-50 -5 29 32 c16 17 32 34 35 37 16
14 131 192 155 240 15 30 29 49 32 42 2 -7 9 -9 14 -6 6 4 8 2 4 -4 -14 -23
14 -21 32 3 16 21 21 22 26 9 5 -12 21 -15 84 -13 43 2 84 -1 92 -6 7 -4 25
-9 40 -9 21 -1 26 3 22 17 -2 9 -8 20 -13 23 -5 3 -9 11 -9 17 0 12 49 -42 50
-54z m-60 21 c0 -5 -4 -10 -10 -10 -5 0 -10 5 -10 10 0 6 5 10 10 10 6 0 10
-4 10 -10z m1045 -71 c3 -4 -16 -24 -42 -45 -26 -21 -79 -67 -117 -101 -54
-49 -72 -60 -83 -52 -26 22 -12 52 67 138 l80 88 45 -11 c24 -7 47 -14 50 -17z
m79 -76 c20 -25 36 -50 36 -54 0 -4 -34 -31 -76 -61 -41 -29 -109 -79 -150
-112 -41 -32 -76 -57 -78 -55 -11 14 -23 95 -16 108 14 27 225 221 240 221 4
0 24 -21 44 -47z m-3156 -45 c20 -20 14 -38 -12 -38 -14 0 -27 -4 -31 -10 -6
-10 29 -50 43 -50 14 0 4 -152 -10 -162 -7 -4 -42 -8 -79 -8 -36 0 -70 -5 -76
-11 -6 -6 -16 -8 -21 -5 -18 11 52 168 103 234 49 63 62 71 83 50z m3227 -67
c52 -98 85 -176 96 -226 17 -78 17 -258 0 -362 l-13 -83 -42 7 c-22 3 -51 10
-64 14 -31 12 -202 12 -202 0 0 -5 37 -36 83 -69 45 -33 101 -79 124 -101 l43
-41 -20 -53 c-11 -28 -40 -91 -65 -138 -24 -48 -46 -98 -49 -112 -5 -29 -34
-78 -54 -90 -25 -16 -163 -189 -231 -290 -73 -108 -103 -133 -231 -191 -119
-54 -212 -71 -375 -70 -131 1 -161 5 -238 28 -48 14 -123 44 -165 65 -69 34
-81 45 -106 90 -27 50 -27 55 -25 193 3 140 3 141 -22 157 -13 9 -79 71 -146
139 -132 132 -133 133 -113 217 5 22 7 41 5 43 -2 3 -23 -5 -46 -18 l-43 -22
-17 23 c-10 13 -38 59 -64 103 l-46 79 47 -7 c26 -3 59 -6 74 -6 21 0 29 -6
34 -24 10 -42 81 -120 134 -149 95 -52 241 -68 356 -39 l78 19 16 -36 c20 -46
28 -176 12 -196 -6 -7 -25 -17 -41 -20 -40 -9 -111 -77 -103 -99 9 -23 23 -20
46 9 11 14 41 35 66 47 43 21 60 23 222 22 96 -1 202 -7 235 -12 148 -27 125
-32 202 44 56 57 126 154 142 199 1 6 11 28 21 50 22 48 65 173 80 235 34 133
81 400 75 420 -6 20 50 75 176 171 42 32 83 64 91 72 12 12 34 24 48 26 3 1
10 -7 15 -18z m-1124 -30 c22 -18 23 -21 8 -36 -9 -9 -44 -20 -78 -25 -34 -5
-84 -16 -112 -25 -28 -10 -53 -15 -56 -11 -22 21 64 83 142 102 68 17 70 17
96 -5z m-2975 -152 c92 -28 150 -59 204 -107 45 -40 45 -40 26 -61 -11 -12
-30 -21 -43 -21 -28 0 -97 -34 -172 -84 l-54 -37 -25 23 c-95 85 -128 145
-117 207 8 43 60 101 91 101 12 0 53 -10 90 -21z m1779 -240 c44 -6 82 -13 84
-15 2 -2 7 -20 11 -41 4 -21 11 -46 15 -55 6 -16 -2 -17 -84 -15 -80 2 -91 4
-91 20 0 21 -35 93 -50 102 -19 12 -10 27 13 21 12 -3 58 -11 102 -17z m-633
-104 c19 -38 25 -64 22 -87 -3 -23 1 -40 15 -58 23 -29 38 -22 21 10 -21 39
-6 51 37 31 21 -10 54 -22 73 -26 45 -9 83 -32 100 -58 10 -18 10 -22 -6 -34
-16 -12 -16 -13 9 -13 26 0 27 -3 27 -47 -1 -137 -113 -229 -292 -242 l-88 -6
-68 -72 c-103 -108 -211 -142 -348 -108 -145 36 -185 74 -209 195 -20 98 -40
147 -63 155 -10 3 -36 23 -60 45 -24 22 -47 40 -52 40 -15 0 -12 26 4 39 8 7
47 14 88 17 40 3 91 10 113 15 85 21 152 42 200 62 28 11 76 28 109 39 l58 19
26 -23 c83 -76 181 -203 182 -234 0 -6 7 -17 15 -24 28 -23 17 24 -25 107 -26
52 -60 101 -97 138 -38 38 -53 59 -45 62 8 3 28 18 45 33 18 15 41 30 53 34
11 3 30 17 42 29 16 17 30 22 54 19 29 -3 37 -11 60 -57z m950 24 c66 -22 94
-41 85 -56 -6 -10 -158 4 -168 15 -4 4 -9 19 -13 35 -8 34 9 35 96 6z m-272
-79 l76 0 13 -36 c7 -19 11 -37 9 -38 -1 -2 -56 -7 -121 -12 l-117 -9 0 33 c0
49 17 75 43 68 12 -3 56 -6 97 -6z m358 -42 c6 -6 12 -19 12 -30 0 -18 -5 -20
-31 -14 -17 3 -49 6 -70 6 -32 0 -40 4 -53 31 l-15 31 72 -7 c39 -4 78 -12 85
-17z m-201 -160 c79 -164 230 -345 426 -514 62 -53 112 -102 111 -110 0 -8 -1
-34 -2 -58 -2 -42 -4 -44 -66 -81 -99 -58 -211 -171 -231 -233 -4 -13 -31 -39
-60 -58 -30 -18 -61 -47 -71 -63 -16 -26 -22 -29 -96 -35 -125 -10 -240 -43
-348 -97 -73 -37 -196 -153 -228 -216 l-20 -38 -7 40 c-4 22 -12 56 -18 75 -8
24 -12 149 -11 410 1 339 3 387 22 495 12 66 22 124 22 128 0 4 30 41 68 82
80 87 79 86 118 150 34 57 74 147 74 167 0 32 24 38 151 38 l127 0 39 -82z
m1068 -228 c-3 -5 -12 -10 -18 -10 -7 0 -6 4 3 10 19 12 23 12 15 0z m-12 -59
c8 -32 9 -33 28 -15 10 9 19 12 19 6 0 -6 -4 -13 -9 -16 -5 -3 -7 -15 -4 -26
5 -19 0 -20 -66 -20 -39 0 -71 4 -71 9 0 4 12 26 26 47 44 64 63 68 77 15z
m124 -77 c-3 -3 -12 -4 -19 -1 -8 3 -5 6 6 6 11 1 17 -2 13 -5z m633 -363 c0
-4 -17 -36 -37 -70 -52 -89 -201 -215 -315 -269 -170 -79 -267 -100 -353 -74
-63 19 -68 24 -60 53 6 24 8 24 123 24 144 1 233 21 360 83 117 57 187 119
232 206 18 36 37 63 41 60 5 -3 9 -9 9 -13z m-1112 -308 c-9 -27 -22 -90 -29
-140 -6 -51 -14 -93 -16 -93 -10 0 -113 71 -113 77 0 10 86 138 125 186 39 48
55 34 33 -30z m-376 -95 c17 -11 39 -42 50 -67 30 -69 64 -108 119 -140 l49
-28 -77 -64 c-42 -35 -103 -90 -135 -121 -32 -32 -61 -58 -63 -58 -6 0 -52 38
-86 72 -15 15 -29 25 -31 22 -3 -2 -15 27 -27 65 -44 134 -23 264 53 328 26
21 37 24 74 19 24 -3 57 -16 74 -28z m1920 -225 c31 -60 85 -152 122 -206 l67
-98 -158 6 c-87 4 -164 9 -171 11 -19 6 -12 77 34 319 9 50 21 101 27 115 l10
25 7 -32 c4 -18 32 -81 62 -140z m-249 -852 c13 -5 34 -25 46 -44 18 -30 21
-50 21 -149 0 -64 -3 -131 -7 -149 -7 -38 -97 -135 -151 -163 -30 -15 -34 -15
-57 0 l-25 16 61 67 c86 94 105 132 34 70 -36 -32 -46 -29 -20 8 8 11 17 40
21 64 l6 44 -33 -65 c-35 -69 -143 -187 -195 -212 -18 -8 -29 -21 -29 -33 0
-18 6 -20 48 -17 44 3 47 2 38 -15 -19 -35 -51 -53 -94 -53 -54 0 -108 27
-125 63 -12 25 -11 34 13 83 32 65 131 166 194 198 25 13 53 32 62 42 25 29
85 144 99 189 21 66 38 77 93 56z m-1488 -111 c12 -5 27 -28 39 -61 22 -66 78
-160 126 -213 39 -44 36 -43 -67 26 -68 46 -76 55 -112 131 -22 45 -43 95 -47
111 -7 30 -4 30 61 6z m-65 -84 c0 -8 3 -21 6 -29 4 -12 0 -14 -15 -10 -30 8
-26 0 22 -50 39 -41 122 -165 115 -173 -4 -3 -142 88 -169 112 -17 16 -39 19
-39 5 0 -4 21 -25 48 -44 26 -20 52 -40 57 -44 6 -5 48 -34 95 -66 59 -39 108
-84 155 -140 123 -146 396 -407 580 -557 74 -60 94 -82 111 -124 11 -28 33
-75 49 -104 26 -50 27 -55 11 -70 -16 -16 -19 -15 -49 21 -28 34 -36 38 -60
32 -16 -4 -31 -14 -34 -22 -3 -8 -16 -18 -29 -23 -12 -5 -28 -18 -34 -29 -11
-21 -8 -26 46 -71 16 -13 13 -15 -37 -25 -61 -12 -89 -4 -89 26 0 17 -5 20
-27 15 -25 -5 -32 0 -60 45 -35 54 -41 91 -21 134 9 21 9 28 0 34 -9 5 -11 21
-6 49 6 37 3 44 -22 69 -16 16 -40 35 -53 44 -20 13 -22 18 -12 36 18 35 4 53
-43 53 -32 0 -48 -6 -65 -24 -13 -14 -33 -26 -45 -28 -15 -2 -22 -11 -24 -33
-5 -41 -20 -56 -48 -49 -32 8 -74 -3 -74 -20 0 -7 -6 -19 -14 -25 -24 -20 -62
12 -70 58 -5 31 -12 41 -36 51 -25 11 -30 18 -30 49 0 20 -4 41 -8 46 -15 21
-53 35 -96 35 -30 0 -46 5 -50 15 -3 10 -19 15 -45 15 -32 0 -40 4 -44 23 -3
12 -8 32 -12 44 -5 16 -2 23 13 27 11 4 23 14 26 23 8 19 -23 93 -39 93 -6 0
-23 14 -39 32 -23 26 -26 36 -17 50 18 28 13 90 -15 198 l-26 101 63 57 c35
31 90 85 123 120 60 63 76 73 76 48z m240 -258 c126 -87 192 -123 409 -227 25
-12 50 -21 55 -21 6 0 23 -6 37 -14 15 -7 60 -24 100 -36 41 -12 87 -26 103
-31 18 -5 33 -6 39 0 5 5 -13 16 -45 26 -149 47 -458 188 -458 209 0 4 8 5 18
1 9 -4 45 -12 80 -17 49 -7 74 -17 114 -48 57 -43 134 -83 217 -112 79 -28
251 -28 339 0 45 15 64 17 67 9 24 -73 24 -91 3 -114 -28 -29 -91 -31 -188 -4
-70 20 -94 16 -42 -6 15 -6 45 -19 67 -28 26 -12 67 -17 118 -17 67 0 77 -2
77 -17 0 -35 -38 -56 -96 -54 -58 2 -73 -11 -25 -22 16 -3 37 -17 45 -31 9
-13 23 -24 31 -24 12 0 15 -16 15 -82 -1 -94 -14 -121 -67 -132 -37 -9 -58
-30 -47 -48 12 -19 5 -61 -12 -75 -12 -8 -14 -22 -9 -56 7 -46 -6 -70 -27 -49
-8 8 -19 7 -39 -4 -27 -13 -29 -13 -53 19 -55 72 -87 178 -48 162 44 -18 56
-16 27 4 -59 41 -238 187 -361 296 -105 93 -341 323 -366 358 -18 25 -11 23
84 -27 184 -98 418 -191 592 -236 95 -24 102 -24 86 -5 -7 8 -18 15 -24 15
-23 0 -200 61 -311 107 -99 41 -403 189 -415 203 -3 3 -22 14 -43 24 -50 26
-64 40 -109 107 -41 60 -48 81 -20 57 9 -9 46 -36 82 -60z m1281 -197 c92 -60
278 -156 384 -198 231 -91 389 -131 649 -163 87 -10 161 -22 164 -25 13 -13
-24 -483 -48 -610 -54 -286 -86 -390 -179 -589 -109 -232 -270 -416 -402 -460
-139 -46 -289 -60 -368 -35 -140 45 -197 83 -278 186 -65 83 -145 266 -128
293 3 6 23 10 44 10 41 0 111 25 124 44 4 6 5 27 2 47 -3 22 1 52 10 73 11 25
16 76 17 164 2 124 1 128 -31 197 -18 39 -39 77 -46 85 -7 8 -16 26 -20 40 -4
14 -12 31 -18 39 -30 37 -37 90 -37 303 0 119 -3 223 -6 232 -3 9 -12 16 -20
16 -8 0 -14 5 -14 10 0 6 4 10 10 10 18 0 60 51 60 73 0 13 -7 33 -16 45 -11
16 -13 26 -5 35 7 9 6 27 -4 62 -8 26 -15 55 -15 63 0 13 82 102 94 102 2 0
36 -22 77 -49z m-217 -2637 c27 -70 14 -193 -31 -309 -92 -235 -404 -568 -723
-770 -125 -80 -119 -76 -240 -135 -58 -28 -112 -55 -120 -59 -17 -9 -133 -43
-203 -60 -130 -31 -277 -2 -337 66 -17 19 -29 37 -27 39 2 2 37 0 78 -6 112
-14 290 -12 373 5 83 17 200 56 260 87 57 29 231 143 286 187 127 102 370 336
398 384 9 15 20 27 24 27 4 0 37 37 74 82 105 131 163 272 167 407 2 69 9 87
21 55z m416 -2522 c0 -20 36 -167 47 -192 3 -8 8 -24 10 -34 8 -45 68 -148 97
-169 52 -36 57 -41 95 -78 71 -72 113 -125 116 -149 0 -3 6 -15 13 -26 6 -12
21 -66 33 -120 11 -55 25 -103 30 -109 5 -5 9 -15 9 -22 0 -15 19 -39 77 -100
40 -41 42 -46 36 -88 -3 -25 -10 -45 -16 -45 -18 0 -75 69 -97 117 -13 27 -26
55 -31 64 -4 9 -11 34 -14 55 -44 247 -121 380 -298 513 -65 50 -105 121 -127
228 -13 64 -6 173 11 173 5 0 9 -8 9 -18z m640 -1202 c28 -83 56 -129 87 -141
13 -5 22 -12 19 -17 -2 -4 17 -16 42 -25 26 -10 55 -23 65 -28 24 -13 192 -36
247 -34 25 1 53 -1 63 -4 16 -6 16 -8 -5 -28 -79 -72 -192 -85 -296 -32 -83
41 -159 126 -217 244 -39 79 -45 100 -44 151 1 57 1 58 9 19 5 -22 18 -69 30
-105z m765 -111 c42 -20 65 -24 142 -24 51 0 93 -1 93 -2 0 -11 -64 -57 -98
-70 -47 -18 -163 -13 -188 8 -15 12 -21 124 -6 116 4 -2 30 -15 57 -28z"/>
<path d="M5271 11344 c-76 -66 -112 -173 -91 -277 14 -73 47 -170 71 -211 13
-22 15 -34 8 -48 -12 -22 -5 -48 11 -48 6 0 22 26 36 58 40 90 94 134 208 168
36 11 45 33 17 41 -19 5 -21 12 -21 87 0 129 -36 218 -102 250 -51 26 -89 20
-137 -20z m129 -14 c28 -15 58 -74 69 -136 16 -86 14 -92 -17 -55 -22 27 -35
34 -67 35 -35 1 -40 -2 -37 -19 2 -11 5 -33 5 -50 2 -29 0 -30 -38 -30 l-40 0
1 -49 c0 -42 5 -53 33 -78 32 -28 32 -30 15 -49 -25 -27 -32 -24 -53 24 -31
68 -51 151 -51 212 0 130 100 238 180 195z m87 -262 c-3 -7 -5 -2 -5 12 0 14
2 19 5 13 2 -7 2 -19 0 -25z"/>
<path d="M4831 10844 c0 -11 3 -14 6 -6 3 7 2 16 -1 19 -3 4 -6 -2 -5 -13z"/>
</g>
</svg>
